%TF.GenerationSoftware,KiCad,Pcbnew,(6.0.1)*%
%TF.CreationDate,2022-02-12T15:33:55+03:30*%
%TF.ProjectId,led,6c65642e-6b69-4636-9164-5f7063625858,rev?*%
%TF.SameCoordinates,Original*%
%TF.FileFunction,Copper,L1,Top*%
%TF.FilePolarity,Positive*%
%FSLAX46Y46*%
G04 Gerber Fmt 4.6, Leading zero omitted, Abs format (unit mm)*
G04 Created by KiCad (PCBNEW (6.0.1)) date 2022-02-12 15:33:55*
%MOMM*%
%LPD*%
G01*
G04 APERTURE LIST*
G04 Aperture macros list*
%AMRoundRect*
0 Rectangle with rounded corners*
0 $1 Rounding radius*
0 $2 $3 $4 $5 $6 $7 $8 $9 X,Y pos of 4 corners*
0 Add a 4 corners polygon primitive as box body*
4,1,4,$2,$3,$4,$5,$6,$7,$8,$9,$2,$3,0*
0 Add four circle primitives for the rounded corners*
1,1,$1+$1,$2,$3*
1,1,$1+$1,$4,$5*
1,1,$1+$1,$6,$7*
1,1,$1+$1,$8,$9*
0 Add four rect primitives between the rounded corners*
20,1,$1+$1,$2,$3,$4,$5,0*
20,1,$1+$1,$4,$5,$6,$7,0*
20,1,$1+$1,$6,$7,$8,$9,0*
20,1,$1+$1,$8,$9,$2,$3,0*%
G04 Aperture macros list end*
%TA.AperFunction,NonConductor*%
%ADD10C,0.200000*%
%TD*%
%TA.AperFunction,SMDPad,CuDef*%
%ADD11R,1.500000X2.000000*%
%TD*%
%TA.AperFunction,SMDPad,CuDef*%
%ADD12R,3.800000X2.000000*%
%TD*%
%TA.AperFunction,SMDPad,CuDef*%
%ADD13RoundRect,0.225000X-0.250000X0.225000X-0.250000X-0.225000X0.250000X-0.225000X0.250000X0.225000X0*%
%TD*%
%TA.AperFunction,SMDPad,CuDef*%
%ADD14RoundRect,0.225000X0.225000X0.250000X-0.225000X0.250000X-0.225000X-0.250000X0.225000X-0.250000X0*%
%TD*%
%TA.AperFunction,SMDPad,CuDef*%
%ADD15RoundRect,0.100000X-0.637500X-0.100000X0.637500X-0.100000X0.637500X0.100000X-0.637500X0.100000X0*%
%TD*%
%TA.AperFunction,SMDPad,CuDef*%
%ADD16RoundRect,0.250000X-0.625000X0.312500X-0.625000X-0.312500X0.625000X-0.312500X0.625000X0.312500X0*%
%TD*%
%TA.AperFunction,SMDPad,CuDef*%
%ADD17RoundRect,0.250000X0.450000X-0.262500X0.450000X0.262500X-0.450000X0.262500X-0.450000X-0.262500X0*%
%TD*%
%TA.AperFunction,SMDPad,CuDef*%
%ADD18RoundRect,0.135000X-0.185000X0.135000X-0.185000X-0.135000X0.185000X-0.135000X0.185000X0.135000X0*%
%TD*%
%TA.AperFunction,SMDPad,CuDef*%
%ADD19RoundRect,0.150000X0.587500X0.150000X-0.587500X0.150000X-0.587500X-0.150000X0.587500X-0.150000X0*%
%TD*%
%TA.AperFunction,ComponentPad*%
%ADD20R,1.000000X1.000000*%
%TD*%
%TA.AperFunction,ComponentPad*%
%ADD21O,1.000000X1.000000*%
%TD*%
%TA.AperFunction,SMDPad,CuDef*%
%ADD22R,1.380000X0.450000*%
%TD*%
%TA.AperFunction,SMDPad,CuDef*%
%ADD23R,1.900000X1.800000*%
%TD*%
%TA.AperFunction,SMDPad,CuDef*%
%ADD24R,1.300000X1.650000*%
%TD*%
%TA.AperFunction,SMDPad,CuDef*%
%ADD25R,1.550000X1.425000*%
%TD*%
%TA.AperFunction,SMDPad,CuDef*%
%ADD26R,1.900000X1.000000*%
%TD*%
%TA.AperFunction,SMDPad,CuDef*%
%ADD27RoundRect,0.218750X-0.381250X0.218750X-0.381250X-0.218750X0.381250X-0.218750X0.381250X0.218750X0*%
%TD*%
%TA.AperFunction,SMDPad,CuDef*%
%ADD28RoundRect,0.225000X-0.225000X-0.250000X0.225000X-0.250000X0.225000X0.250000X-0.225000X0.250000X0*%
%TD*%
%TA.AperFunction,ViaPad*%
%ADD29C,0.800000*%
%TD*%
%TA.AperFunction,Conductor*%
%ADD30C,0.250000*%
%TD*%
G04 APERTURE END LIST*
D10*
X125095000Y-97155000D02*
X125095000Y-114935000D01*
X125095000Y-114935000D02*
X92710000Y-114935000D01*
X92710000Y-114935000D02*
X92710000Y-97155000D01*
X125095000Y-97155000D02*
X92710000Y-97155000D01*
D11*
%TO.P,U2,1,GND*%
%TO.N,GND*%
X115355400Y-105790600D03*
D12*
%TO.P,U2,2,VO*%
%TO.N,+3V3*%
X113055400Y-112090600D03*
D11*
X113055400Y-105790600D03*
%TO.P,U2,3,VI*%
%TO.N,+5V*%
X110755400Y-105790600D03*
%TD*%
D13*
%TO.P,C3,1*%
%TO.N,+3V3*%
X99314000Y-102857000D03*
%TO.P,C3,2*%
%TO.N,GND*%
X99314000Y-104407000D03*
%TD*%
D14*
%TO.P,C4,2*%
%TO.N,GND*%
X96253000Y-111760000D03*
%TO.P,C4,1*%
%TO.N,+5V*%
X97803000Y-111760000D03*
%TD*%
D15*
%TO.P,U1,14,PA14*%
%TO.N,SWCLK*%
X116146500Y-99472200D03*
%TO.P,U1,13,PA13*%
%TO.N,SWDIO*%
X116146500Y-100122200D03*
%TO.P,U1,12,PA10*%
%TO.N,unconnected-(U1-Pad12)*%
X116146500Y-100772200D03*
%TO.P,U1,11,PA9*%
%TO.N,unconnected-(U1-Pad11)*%
X116146500Y-101422200D03*
%TO.P,U1,10,VDD*%
%TO.N,+3V3*%
X116146500Y-102072200D03*
%TO.P,U1,9,VSS*%
%TO.N,GND*%
X116146500Y-102722200D03*
%TO.P,U1,8,PA7*%
%TO.N,unconnected-(U1-Pad8)*%
X116146500Y-103372200D03*
%TO.P,U1,7,PA4*%
%TO.N,unconnected-(U1-Pad7)*%
X110421500Y-103372200D03*
%TO.P,U1,6,PA1*%
%TO.N,unconnected-(U1-Pad6)*%
X110421500Y-102722200D03*
%TO.P,U1,5,PA0*%
%TO.N,PWM*%
X110421500Y-102072200D03*
%TO.P,U1,4,NRST*%
%TO.N,unconnected-(U1-Pad4)*%
X110421500Y-101422200D03*
%TO.P,U1,3,PC15*%
%TO.N,unconnected-(U1-Pad3)*%
X110421500Y-100772200D03*
%TO.P,U1,2,PC14*%
%TO.N,unconnected-(U1-Pad2)*%
X110421500Y-100122200D03*
%TO.P,U1,1,PB9*%
%TO.N,Net-(R1-Pad1)*%
X110421500Y-99472200D03*
%TD*%
D16*
%TO.P,R4,2*%
%TO.N,Net-(Q1-Pad1)*%
X123139200Y-112435100D03*
%TO.P,R4,1*%
%TO.N,PWM*%
X123139200Y-109510100D03*
%TD*%
D17*
%TO.P,R3,1*%
%TO.N,Net-(Q1-Pad3)*%
X106476800Y-111300900D03*
%TO.P,R3,2*%
%TO.N,+5V*%
X106476800Y-109475900D03*
%TD*%
%TO.P,R2,1*%
%TO.N,Net-(Q1-Pad3)*%
X101295200Y-111300900D03*
%TO.P,R2,2*%
%TO.N,+5V*%
X101295200Y-109475900D03*
%TD*%
D18*
%TO.P,R1,2*%
%TO.N,GND*%
X108458000Y-101856000D03*
%TO.P,R1,1*%
%TO.N,Net-(R1-Pad1)*%
X108458000Y-100836000D03*
%TD*%
D19*
%TO.P,Q1,1,G*%
%TO.N,Net-(Q1-Pad1)*%
X120876300Y-112583000D03*
%TO.P,Q1,2,S*%
%TO.N,GND*%
X120876300Y-110683000D03*
%TO.P,Q1,3,D*%
%TO.N,Net-(Q1-Pad3)*%
X119001300Y-111633000D03*
%TD*%
D20*
%TO.P,J2,1,Pin_1*%
%TO.N,SWCLK*%
X118999000Y-99674600D03*
D21*
%TO.P,J2,2,Pin_2*%
%TO.N,SWDIO*%
X118999000Y-100944600D03*
%TO.P,J2,3,Pin_3*%
%TO.N,+3V3*%
X118999000Y-102214600D03*
%TO.P,J2,4,Pin_4*%
%TO.N,GND*%
X118999000Y-103484600D03*
%TD*%
D22*
%TO.P,J1,1,VBUS*%
%TO.N,Net-(FB1-Pad1)*%
X96710000Y-104110000D03*
%TO.P,J1,2,D-*%
%TO.N,unconnected-(J1-Pad2)*%
X96710000Y-104760000D03*
%TO.P,J1,3,D+*%
%TO.N,unconnected-(J1-Pad3)*%
X96710000Y-105410000D03*
%TO.P,J1,4,ID*%
%TO.N,unconnected-(J1-Pad4)*%
X96710000Y-106060000D03*
%TO.P,J1,5,GND*%
%TO.N,GND*%
X96710000Y-106710000D03*
D23*
%TO.P,J1,6,Shield*%
%TO.N,unconnected-(J1-Pad6)*%
X94050000Y-104260000D03*
D24*
X94050000Y-108785000D03*
X94050000Y-102035000D03*
D25*
X96625000Y-102922500D03*
D26*
X94050000Y-106960000D03*
D25*
X96625000Y-107897500D03*
%TD*%
D27*
%TO.P,FB1,1*%
%TO.N,Net-(FB1-Pad1)*%
X99060000Y-107395500D03*
%TO.P,FB1,2*%
%TO.N,+5V*%
X99060000Y-109520500D03*
%TD*%
D13*
%TO.P,C5,1*%
%TO.N,+3V3*%
X101346000Y-102806200D03*
%TO.P,C5,2*%
%TO.N,GND*%
X101346000Y-104356200D03*
%TD*%
D28*
%TO.P,C2,1*%
%TO.N,+3V3*%
X106209800Y-103124000D03*
%TO.P,C2,2*%
%TO.N,GND*%
X107759800Y-103124000D03*
%TD*%
%TO.P,C1,1*%
%TO.N,+3V3*%
X106209800Y-104648000D03*
%TO.P,C1,2*%
%TO.N,GND*%
X107759800Y-104648000D03*
%TD*%
D29*
%TO.N,GND*%
X109220000Y-103886000D03*
X114357719Y-104197719D03*
X100325701Y-106430299D03*
X107696000Y-105295500D03*
X107696000Y-106934000D03*
X98293701Y-106430299D03*
%TD*%
D30*
%TO.N,GND*%
X109220000Y-103886000D02*
X108521800Y-103886000D01*
X108521800Y-103886000D02*
X107759800Y-103124000D01*
X115355400Y-105195400D02*
X114357719Y-104197719D01*
X115355400Y-105790600D02*
X115355400Y-105195400D01*
X117348000Y-104394000D02*
X117348000Y-103235839D01*
X117094000Y-104648000D02*
X117348000Y-104394000D01*
X116498000Y-104648000D02*
X117094000Y-104648000D01*
X115355400Y-105790600D02*
X116498000Y-104648000D01*
X117348000Y-103235839D02*
X116834361Y-102722200D01*
X116834361Y-102722200D02*
X116146500Y-102722200D01*
X100325701Y-105418701D02*
X99314000Y-104407000D01*
X100325701Y-106430299D02*
X100325701Y-105418701D01*
X99314000Y-104407000D02*
X101295200Y-104407000D01*
X101295200Y-104407000D02*
X101346000Y-104356200D01*
%TO.N,+5V*%
X99104600Y-109475900D02*
X99060000Y-109520500D01*
X101295200Y-109475900D02*
X99104600Y-109475900D01*
X106476800Y-109475900D02*
X101295200Y-109475900D01*
X99060000Y-110503000D02*
X97803000Y-111760000D01*
X99060000Y-109520500D02*
X99060000Y-110503000D01*
%TO.N,GND*%
X97574022Y-106710000D02*
X96710000Y-106710000D01*
X97790000Y-106925978D02*
X97574022Y-106710000D01*
X97790000Y-109728000D02*
X97790000Y-106925978D01*
X96253000Y-111760000D02*
X96253000Y-111265000D01*
X96253000Y-111265000D02*
X97790000Y-109728000D01*
X107696000Y-104711800D02*
X107759800Y-104648000D01*
X107696000Y-105295500D02*
X107696000Y-104711800D01*
X107696000Y-107442000D02*
X107696000Y-106934000D01*
X101346000Y-107442000D02*
X107696000Y-107442000D01*
X101346000Y-104356200D02*
X101346000Y-107442000D01*
X96710000Y-106710000D02*
X98014000Y-106710000D01*
X98014000Y-106710000D02*
X98293701Y-106430299D01*
%TO.N,Net-(FB1-Pad1)*%
X98044000Y-105156000D02*
X98044000Y-104394000D01*
X99060000Y-106172000D02*
X98044000Y-105156000D01*
X98044000Y-104394000D02*
X97760000Y-104110000D01*
X97760000Y-104110000D02*
X96710000Y-104110000D01*
X99060000Y-107395500D02*
X99060000Y-106172000D01*
%TO.N,+3V3*%
X101295200Y-102857000D02*
X101346000Y-102806200D01*
X99314000Y-102857000D02*
X101295200Y-102857000D01*
%TO.N,GND*%
X99314000Y-104407000D02*
X99314000Y-104648000D01*
%TO.N,+3V3*%
X101346000Y-102806200D02*
X101663800Y-103124000D01*
X101663800Y-103124000D02*
X106209800Y-103124000D01*
%TO.N,Net-(R1-Pad1)*%
X109733639Y-99472200D02*
X110421500Y-99472200D01*
X108458000Y-100836000D02*
X108458000Y-100747839D01*
X108458000Y-100747839D02*
X109733639Y-99472200D01*
%TO.N,GND*%
X108458000Y-102425800D02*
X107759800Y-103124000D01*
X108458000Y-101856000D02*
X108458000Y-102425800D01*
%TO.N,unconnected-(J1-Pad6)*%
X94485000Y-109220000D02*
X94050000Y-108785000D01*
X95250000Y-109220000D02*
X94485000Y-109220000D01*
X96572500Y-107897500D02*
X95250000Y-109220000D01*
X96625000Y-107897500D02*
X96572500Y-107897500D01*
X94050000Y-106960000D02*
X94050000Y-108785000D01*
X94050000Y-104260000D02*
X94050000Y-106960000D01*
X94050000Y-102035000D02*
X94050000Y-104260000D01*
X95737500Y-102035000D02*
X96625000Y-102922500D01*
X94050000Y-102035000D02*
X95737500Y-102035000D01*
%TO.N,GND*%
X107660000Y-104747800D02*
X107759800Y-104648000D01*
%TO.N,+3V3*%
X101663811Y-103124011D02*
X101346000Y-102806200D01*
X106209800Y-103124000D02*
X106209789Y-103124011D01*
X106209800Y-103124000D02*
X106209800Y-104648000D01*
%TO.N,+5V*%
X106830900Y-109830000D02*
X106476800Y-109475900D01*
X110740000Y-109830000D02*
X106830900Y-109830000D01*
X110755400Y-109814600D02*
X110740000Y-109830000D01*
X110755400Y-105790600D02*
X110755400Y-109814600D01*
%TO.N,GND*%
X118999000Y-106869000D02*
X118999000Y-103484600D01*
X120876300Y-108746300D02*
X118999000Y-106869000D01*
X120876300Y-110683000D02*
X120876300Y-108746300D01*
%TO.N,PWM*%
X111767800Y-102072200D02*
X110421500Y-102072200D01*
X111890000Y-101950000D02*
X111767800Y-102072200D01*
X111890000Y-99260000D02*
X111890000Y-101950000D01*
X112980000Y-98170000D02*
X111890000Y-99260000D01*
X121140000Y-98170000D02*
X112980000Y-98170000D01*
X121330000Y-98360000D02*
X121140000Y-98170000D01*
X121330000Y-107700900D02*
X121330000Y-98360000D01*
X123139200Y-109510100D02*
X121330000Y-107700900D01*
%TO.N,+3V3*%
X106209800Y-105569800D02*
X106209800Y-104648000D01*
X108900000Y-106020000D02*
X106660000Y-106020000D01*
X108900000Y-105246978D02*
X108900000Y-106020000D01*
X109680889Y-104466089D02*
X108900000Y-105246978D01*
X112396089Y-104466089D02*
X109680889Y-104466089D01*
X113055400Y-105125400D02*
X112396089Y-104466089D01*
X113055400Y-105790600D02*
X113055400Y-105125400D01*
X106660000Y-106020000D02*
X106209800Y-105569800D01*
X113055400Y-105790600D02*
X113055400Y-104475439D01*
X113055400Y-104475439D02*
X115458639Y-102072200D01*
X115458639Y-102072200D02*
X116146500Y-102072200D01*
%TO.N,Net-(Q1-Pad3)*%
X106476800Y-111300900D02*
X101295200Y-111300900D01*
X109069500Y-113893600D02*
X106476800Y-111300900D01*
X116662200Y-113893600D02*
X109069500Y-113893600D01*
X118922800Y-111633000D02*
X116662200Y-113893600D01*
X119001300Y-111633000D02*
X118922800Y-111633000D01*
%TO.N,+3V3*%
X106019600Y-102933800D02*
X106209800Y-103124000D01*
%TO.N,GND*%
X118236600Y-102722200D02*
X116146500Y-102722200D01*
X118999000Y-103484600D02*
X118236600Y-102722200D01*
%TO.N,+3V3*%
X118856600Y-102072200D02*
X116146500Y-102072200D01*
X118999000Y-102214600D02*
X118856600Y-102072200D01*
%TO.N,SWDIO*%
X117656761Y-100944600D02*
X116834361Y-100122200D01*
X118999000Y-100944600D02*
X117656761Y-100944600D01*
X116834361Y-100122200D02*
X116146500Y-100122200D01*
%TO.N,SWCLK*%
X118796600Y-99472200D02*
X116146500Y-99472200D01*
X118999000Y-99674600D02*
X118796600Y-99472200D01*
%TO.N,GND*%
X107759800Y-104648000D02*
X107759800Y-103124000D01*
%TO.N,Net-(Q1-Pad1)*%
X121024200Y-112435100D02*
X120876300Y-112583000D01*
X123139200Y-112435100D02*
X121024200Y-112435100D01*
%TO.N,+3V3*%
X113055400Y-105790600D02*
X113055400Y-112090600D01*
%TO.N,+5V*%
X106476800Y-109475900D02*
X107070100Y-109475900D01*
%TD*%
%TA.AperFunction,Conductor*%
%TO.N,GND*%
G36*
X97907471Y-108931418D02*
G01*
X97964307Y-108973965D01*
X97989118Y-109040485D01*
X97983032Y-109089141D01*
X97963929Y-109146735D01*
X97961762Y-109153269D01*
X97951500Y-109253428D01*
X97951500Y-109787572D01*
X97951837Y-109790818D01*
X97951837Y-109790822D01*
X97954866Y-109820010D01*
X97962022Y-109888982D01*
X98015692Y-110049849D01*
X98104929Y-110194055D01*
X98110107Y-110199224D01*
X98110111Y-110199229D01*
X98199894Y-110288855D01*
X98233974Y-110351137D01*
X98228971Y-110421957D01*
X98199972Y-110467123D01*
X97927500Y-110739595D01*
X97865188Y-110773621D01*
X97838405Y-110776500D01*
X97529268Y-110776500D01*
X97526022Y-110776837D01*
X97526018Y-110776837D01*
X97496730Y-110779876D01*
X97426981Y-110787113D01*
X97418963Y-110789788D01*
X97271676Y-110838927D01*
X97271674Y-110838928D01*
X97264732Y-110841244D01*
X97258508Y-110845096D01*
X97258507Y-110845096D01*
X97215608Y-110871643D01*
X97119287Y-110931248D01*
X97114114Y-110936430D01*
X97108377Y-110940977D01*
X97106945Y-110939170D01*
X97054425Y-110967902D01*
X96983605Y-110962892D01*
X96947147Y-110939501D01*
X96946317Y-110940552D01*
X96929160Y-110927002D01*
X96796120Y-110844996D01*
X96782939Y-110838849D01*
X96634186Y-110789509D01*
X96620810Y-110786642D01*
X96529903Y-110777328D01*
X96524874Y-110777071D01*
X96509876Y-110781475D01*
X96508671Y-110782865D01*
X96507000Y-110790548D01*
X96507000Y-112724885D01*
X96511475Y-112740124D01*
X96512865Y-112741329D01*
X96520548Y-112743000D01*
X96523438Y-112743000D01*
X96529953Y-112742663D01*
X96622057Y-112733106D01*
X96635456Y-112730212D01*
X96784107Y-112680619D01*
X96797286Y-112674445D01*
X96930173Y-112592212D01*
X96947311Y-112578629D01*
X96948841Y-112580559D01*
X97000880Y-112552097D01*
X97071699Y-112557113D01*
X97108617Y-112580799D01*
X97109372Y-112579843D01*
X97115118Y-112584381D01*
X97120298Y-112589552D01*
X97126528Y-112593392D01*
X97126529Y-112593393D01*
X97258020Y-112674445D01*
X97265899Y-112679302D01*
X97428243Y-112733149D01*
X97435080Y-112733849D01*
X97435082Y-112733850D01*
X97476401Y-112738083D01*
X97529268Y-112743500D01*
X98076732Y-112743500D01*
X98079978Y-112743163D01*
X98079982Y-112743163D01*
X98114083Y-112739625D01*
X98179019Y-112732887D01*
X98332726Y-112681606D01*
X98334324Y-112681073D01*
X98334326Y-112681072D01*
X98341268Y-112678756D01*
X98486713Y-112588752D01*
X98495607Y-112579843D01*
X98602381Y-112472882D01*
X98607552Y-112467702D01*
X98674677Y-112358805D01*
X98693462Y-112328331D01*
X98693463Y-112328329D01*
X98697302Y-112322101D01*
X98751149Y-112159757D01*
X98761500Y-112058732D01*
X98761500Y-111749594D01*
X98781502Y-111681473D01*
X98798405Y-111660499D01*
X99452247Y-111006657D01*
X99460537Y-110999113D01*
X99467018Y-110995000D01*
X99476595Y-110984802D01*
X99513658Y-110945333D01*
X99516413Y-110942491D01*
X99536134Y-110922770D01*
X99538612Y-110919575D01*
X99546318Y-110910553D01*
X99571158Y-110884101D01*
X99576586Y-110878321D01*
X99586346Y-110860568D01*
X99597199Y-110844045D01*
X99604753Y-110834306D01*
X99609613Y-110828041D01*
X99627176Y-110787457D01*
X99632383Y-110776827D01*
X99653695Y-110738060D01*
X99655666Y-110730383D01*
X99655668Y-110730378D01*
X99658732Y-110718442D01*
X99665138Y-110699730D01*
X99670034Y-110688417D01*
X99673181Y-110681145D01*
X99677321Y-110655010D01*
X99680097Y-110637481D01*
X99682504Y-110625860D01*
X99691528Y-110590711D01*
X99691528Y-110590710D01*
X99693500Y-110583030D01*
X99693500Y-110562769D01*
X99695051Y-110543058D01*
X99695986Y-110537158D01*
X99698219Y-110523057D01*
X99697473Y-110515165D01*
X99697722Y-110507242D01*
X99699864Y-110507309D01*
X99711267Y-110448476D01*
X99756897Y-110399184D01*
X99772463Y-110389552D01*
X99896055Y-110313071D01*
X100015864Y-110193053D01*
X100019705Y-110186822D01*
X100024242Y-110181077D01*
X100025982Y-110182451D01*
X100070704Y-110142201D01*
X100140775Y-110130776D01*
X100205900Y-110159048D01*
X100232338Y-110189504D01*
X100246722Y-110212748D01*
X100329591Y-110295472D01*
X100333309Y-110299184D01*
X100367388Y-110361466D01*
X100362385Y-110432286D01*
X100333464Y-110477375D01*
X100296753Y-110514150D01*
X100245895Y-110565097D01*
X100242055Y-110571327D01*
X100242054Y-110571328D01*
X100162906Y-110699730D01*
X100153085Y-110715662D01*
X100128662Y-110789295D01*
X100101349Y-110871643D01*
X100097403Y-110883539D01*
X100086700Y-110988000D01*
X100086700Y-111613800D01*
X100087037Y-111617046D01*
X100087037Y-111617050D01*
X100095375Y-111697404D01*
X100097674Y-111719566D01*
X100099855Y-111726102D01*
X100099855Y-111726104D01*
X100120909Y-111789209D01*
X100153650Y-111887346D01*
X100246722Y-112037748D01*
X100371897Y-112162705D01*
X100378127Y-112166545D01*
X100378128Y-112166546D01*
X100515290Y-112251094D01*
X100522462Y-112255515D01*
X100602205Y-112281964D01*
X100683811Y-112309032D01*
X100683813Y-112309032D01*
X100690339Y-112311197D01*
X100697175Y-112311897D01*
X100697178Y-112311898D01*
X100728949Y-112315153D01*
X100794800Y-112321900D01*
X101795600Y-112321900D01*
X101798846Y-112321563D01*
X101798850Y-112321563D01*
X101894508Y-112311638D01*
X101894512Y-112311637D01*
X101901366Y-112310926D01*
X101907902Y-112308745D01*
X101907904Y-112308745D01*
X102040006Y-112264672D01*
X102069146Y-112254950D01*
X102219548Y-112161878D01*
X102344505Y-112036703D01*
X102348348Y-112030469D01*
X102370654Y-111994283D01*
X102423426Y-111946790D01*
X102477913Y-111934400D01*
X105294166Y-111934400D01*
X105362287Y-111954402D01*
X105401309Y-111994096D01*
X105428322Y-112037748D01*
X105553497Y-112162705D01*
X105559727Y-112166545D01*
X105559728Y-112166546D01*
X105696890Y-112251094D01*
X105704062Y-112255515D01*
X105783805Y-112281964D01*
X105865411Y-112309032D01*
X105865413Y-112309032D01*
X105871939Y-112311197D01*
X105878775Y-112311897D01*
X105878778Y-112311898D01*
X105910549Y-112315153D01*
X105976400Y-112321900D01*
X106549706Y-112321900D01*
X106617827Y-112341902D01*
X106638801Y-112358805D01*
X108391901Y-114111905D01*
X108425927Y-114174217D01*
X108420862Y-114245032D01*
X108378315Y-114301868D01*
X108311795Y-114326679D01*
X108302806Y-114327000D01*
X93444000Y-114327000D01*
X93375879Y-114306998D01*
X93329386Y-114253342D01*
X93318000Y-114201000D01*
X93318000Y-112055438D01*
X95295000Y-112055438D01*
X95295337Y-112061953D01*
X95304894Y-112154057D01*
X95307788Y-112167456D01*
X95357381Y-112316107D01*
X95363555Y-112329286D01*
X95445788Y-112462173D01*
X95454824Y-112473574D01*
X95565429Y-112583986D01*
X95576840Y-112592998D01*
X95709880Y-112675004D01*
X95723061Y-112681151D01*
X95871814Y-112730491D01*
X95885190Y-112733358D01*
X95976097Y-112742672D01*
X95981126Y-112742929D01*
X95996124Y-112738525D01*
X95997329Y-112737135D01*
X95999000Y-112729452D01*
X95999000Y-112032115D01*
X95994525Y-112016876D01*
X95993135Y-112015671D01*
X95985452Y-112014000D01*
X95313115Y-112014000D01*
X95297876Y-112018475D01*
X95296671Y-112019865D01*
X95295000Y-112027548D01*
X95295000Y-112055438D01*
X93318000Y-112055438D01*
X93318000Y-111487885D01*
X95295000Y-111487885D01*
X95299475Y-111503124D01*
X95300865Y-111504329D01*
X95308548Y-111506000D01*
X95980885Y-111506000D01*
X95996124Y-111501525D01*
X95997329Y-111500135D01*
X95999000Y-111492452D01*
X95999000Y-110795115D01*
X95994525Y-110779876D01*
X95993135Y-110778671D01*
X95985452Y-110777000D01*
X95982562Y-110777000D01*
X95976047Y-110777337D01*
X95883943Y-110786894D01*
X95870544Y-110789788D01*
X95721893Y-110839381D01*
X95708714Y-110845555D01*
X95575827Y-110927788D01*
X95564426Y-110936824D01*
X95454014Y-111047429D01*
X95445002Y-111058840D01*
X95362996Y-111191880D01*
X95356849Y-111205061D01*
X95307509Y-111353814D01*
X95304642Y-111367190D01*
X95295328Y-111458097D01*
X95295000Y-111464514D01*
X95295000Y-111487885D01*
X93318000Y-111487885D01*
X93318000Y-110244500D01*
X93338002Y-110176379D01*
X93391658Y-110129886D01*
X93444000Y-110118500D01*
X94748134Y-110118500D01*
X94810316Y-110111745D01*
X94946705Y-110060615D01*
X95063261Y-109973261D01*
X95114111Y-109905412D01*
X95170971Y-109862898D01*
X95210977Y-109855040D01*
X95254578Y-109853669D01*
X95257986Y-109853562D01*
X95261945Y-109853500D01*
X95289856Y-109853500D01*
X95293791Y-109853003D01*
X95293856Y-109852995D01*
X95305693Y-109852062D01*
X95337951Y-109851048D01*
X95341970Y-109850922D01*
X95349889Y-109850673D01*
X95369343Y-109845021D01*
X95388700Y-109841013D01*
X95400930Y-109839468D01*
X95400931Y-109839468D01*
X95408797Y-109838474D01*
X95416168Y-109835555D01*
X95416170Y-109835555D01*
X95449912Y-109822196D01*
X95461142Y-109818351D01*
X95495983Y-109808229D01*
X95495984Y-109808229D01*
X95503593Y-109806018D01*
X95510412Y-109801985D01*
X95510417Y-109801983D01*
X95521028Y-109795707D01*
X95538776Y-109787012D01*
X95557617Y-109779552D01*
X95593387Y-109753564D01*
X95603307Y-109747048D01*
X95634535Y-109728580D01*
X95634538Y-109728578D01*
X95641362Y-109724542D01*
X95655683Y-109710221D01*
X95670717Y-109697380D01*
X95680694Y-109690131D01*
X95687107Y-109685472D01*
X95715298Y-109651395D01*
X95723288Y-109642616D01*
X96210499Y-109155405D01*
X96272811Y-109121379D01*
X96299594Y-109118500D01*
X97448134Y-109118500D01*
X97510316Y-109111745D01*
X97646705Y-109060615D01*
X97763261Y-108973261D01*
X97768642Y-108966081D01*
X97774344Y-108960379D01*
X97836656Y-108926353D01*
X97907471Y-108931418D01*
G37*
%TD.AperFunction*%
%TA.AperFunction,Conductor*%
G36*
X120638621Y-98823502D02*
G01*
X120685114Y-98877158D01*
X120696500Y-98929500D01*
X120696500Y-107622133D01*
X120695973Y-107633316D01*
X120694298Y-107640809D01*
X120694547Y-107648735D01*
X120694547Y-107648736D01*
X120696438Y-107708886D01*
X120696500Y-107712845D01*
X120696500Y-107740756D01*
X120696997Y-107744690D01*
X120696997Y-107744691D01*
X120697005Y-107744756D01*
X120697938Y-107756593D01*
X120699327Y-107800789D01*
X120704978Y-107820239D01*
X120708987Y-107839600D01*
X120711526Y-107859697D01*
X120714445Y-107867068D01*
X120714445Y-107867070D01*
X120727804Y-107900812D01*
X120731649Y-107912042D01*
X120743982Y-107954493D01*
X120748015Y-107961312D01*
X120748017Y-107961317D01*
X120754293Y-107971928D01*
X120762988Y-107989676D01*
X120770448Y-108008517D01*
X120775110Y-108014933D01*
X120775110Y-108014934D01*
X120796436Y-108044287D01*
X120802952Y-108054207D01*
X120811141Y-108068053D01*
X120825458Y-108092262D01*
X120839779Y-108106583D01*
X120852619Y-108121616D01*
X120864528Y-108138007D01*
X120870634Y-108143058D01*
X120898605Y-108166198D01*
X120907384Y-108174188D01*
X121724935Y-108991739D01*
X121758961Y-109054051D01*
X121761184Y-109093677D01*
X121755700Y-109147200D01*
X121755700Y-109764781D01*
X121735698Y-109832902D01*
X121682042Y-109879395D01*
X121611768Y-109889499D01*
X121594545Y-109885777D01*
X121573741Y-109879732D01*
X121561133Y-109877430D01*
X121532716Y-109875193D01*
X121527786Y-109875000D01*
X121148415Y-109875000D01*
X121133176Y-109879475D01*
X121131971Y-109880865D01*
X121130300Y-109888548D01*
X121130300Y-110410885D01*
X121134775Y-110426124D01*
X121136165Y-110427329D01*
X121143848Y-110429000D01*
X122016693Y-110429000D01*
X122082809Y-110447740D01*
X122184290Y-110510294D01*
X122191462Y-110514715D01*
X122259126Y-110537158D01*
X122352811Y-110568232D01*
X122352813Y-110568232D01*
X122359339Y-110570397D01*
X122366175Y-110571097D01*
X122366178Y-110571098D01*
X122405250Y-110575101D01*
X122463800Y-110581100D01*
X123814600Y-110581100D01*
X123817846Y-110580763D01*
X123817850Y-110580763D01*
X123913508Y-110570838D01*
X123913512Y-110570837D01*
X123920366Y-110570126D01*
X123926902Y-110567945D01*
X123926904Y-110567945D01*
X124071864Y-110519582D01*
X124088146Y-110514150D01*
X124238548Y-110421078D01*
X124271827Y-110387741D01*
X124334110Y-110353662D01*
X124404930Y-110358665D01*
X124461802Y-110401162D01*
X124486671Y-110467661D01*
X124487000Y-110476759D01*
X124487000Y-111468541D01*
X124466998Y-111536662D01*
X124413342Y-111583155D01*
X124343068Y-111593259D01*
X124278488Y-111563765D01*
X124271982Y-111557714D01*
X124242683Y-111528466D01*
X124237503Y-111523295D01*
X124231272Y-111519454D01*
X124093168Y-111434325D01*
X124093166Y-111434324D01*
X124086938Y-111430485D01*
X123951550Y-111385579D01*
X123925589Y-111376968D01*
X123925587Y-111376968D01*
X123919061Y-111374803D01*
X123912225Y-111374103D01*
X123912222Y-111374102D01*
X123869169Y-111369691D01*
X123814600Y-111364100D01*
X122463800Y-111364100D01*
X122460554Y-111364437D01*
X122460550Y-111364437D01*
X122364892Y-111374362D01*
X122364888Y-111374363D01*
X122358034Y-111375074D01*
X122351498Y-111377255D01*
X122351496Y-111377255D01*
X122226468Y-111418968D01*
X122190254Y-111431050D01*
X122115270Y-111477452D01*
X122079246Y-111499744D01*
X122019965Y-111516058D01*
X121989166Y-111574897D01*
X121914895Y-111649297D01*
X121911055Y-111655527D01*
X121911054Y-111655528D01*
X121857927Y-111741716D01*
X121805155Y-111789209D01*
X121750667Y-111801600D01*
X121668730Y-111801600D01*
X121633577Y-111796597D01*
X121608147Y-111789209D01*
X121567631Y-111777438D01*
X121561226Y-111776934D01*
X121561221Y-111776933D01*
X121532758Y-111774693D01*
X121532750Y-111774693D01*
X121530302Y-111774500D01*
X120373300Y-111774500D01*
X120305179Y-111754498D01*
X120258686Y-111700842D01*
X120247300Y-111648500D01*
X120247300Y-111617000D01*
X120267302Y-111548879D01*
X120320958Y-111502386D01*
X120373300Y-111491000D01*
X120604185Y-111491000D01*
X120619424Y-111486525D01*
X120620629Y-111485135D01*
X120622300Y-111477452D01*
X120622300Y-111472884D01*
X121130300Y-111472884D01*
X121134775Y-111488123D01*
X121136165Y-111489328D01*
X121143848Y-111490999D01*
X121527784Y-111490999D01*
X121532720Y-111490805D01*
X121561136Y-111488570D01*
X121573731Y-111486270D01*
X121719590Y-111443893D01*
X121734025Y-111437646D01*
X121835854Y-111377426D01*
X121893535Y-111362792D01*
X121923848Y-111303505D01*
X121982249Y-111245104D01*
X121991889Y-111232678D01*
X122068448Y-111103221D01*
X122074693Y-111088790D01*
X122113739Y-110954395D01*
X122113699Y-110940294D01*
X122106430Y-110937000D01*
X121148415Y-110937000D01*
X121133176Y-110941475D01*
X121131971Y-110942865D01*
X121130300Y-110950548D01*
X121130300Y-111472884D01*
X120622300Y-111472884D01*
X120622300Y-110955115D01*
X120617825Y-110939876D01*
X120616435Y-110938671D01*
X120608752Y-110937000D01*
X119993642Y-110937000D01*
X119929503Y-110919453D01*
X119866569Y-110882234D01*
X119852401Y-110873855D01*
X119844790Y-110871644D01*
X119844788Y-110871643D01*
X119776755Y-110851878D01*
X119692631Y-110827438D01*
X119686226Y-110826934D01*
X119686221Y-110826933D01*
X119657758Y-110824693D01*
X119657750Y-110824693D01*
X119655302Y-110824500D01*
X118347298Y-110824500D01*
X118344850Y-110824693D01*
X118344842Y-110824693D01*
X118316379Y-110826933D01*
X118316374Y-110826934D01*
X118309969Y-110827438D01*
X118225845Y-110851878D01*
X118157812Y-110871643D01*
X118157810Y-110871644D01*
X118150199Y-110873855D01*
X118136031Y-110882234D01*
X118013820Y-110954509D01*
X118013817Y-110954511D01*
X118006993Y-110958547D01*
X117889347Y-111076193D01*
X117885311Y-111083017D01*
X117885309Y-111083020D01*
X117821693Y-111190589D01*
X117804655Y-111219399D01*
X117758238Y-111379169D01*
X117755300Y-111416498D01*
X117755300Y-111849502D01*
X117754768Y-111849502D01*
X117738007Y-111916192D01*
X117718505Y-111941390D01*
X116436700Y-113223195D01*
X116374388Y-113257221D01*
X116347605Y-113260100D01*
X115589900Y-113260100D01*
X115521779Y-113240098D01*
X115475286Y-113186442D01*
X115463900Y-113134100D01*
X115463900Y-111042466D01*
X115457145Y-110980284D01*
X115406015Y-110843895D01*
X115318661Y-110727339D01*
X115202105Y-110639985D01*
X115065716Y-110588855D01*
X115003534Y-110582100D01*
X113814900Y-110582100D01*
X113746779Y-110562098D01*
X113700286Y-110508442D01*
X113688900Y-110456100D01*
X113688900Y-110411605D01*
X119638861Y-110411605D01*
X119638901Y-110425706D01*
X119646170Y-110429000D01*
X120604185Y-110429000D01*
X120619424Y-110424525D01*
X120620629Y-110423135D01*
X120622300Y-110415452D01*
X120622300Y-109893116D01*
X120617825Y-109877877D01*
X120616435Y-109876672D01*
X120608752Y-109875001D01*
X120224817Y-109875001D01*
X120219880Y-109875195D01*
X120191464Y-109877430D01*
X120178869Y-109879730D01*
X120033010Y-109922107D01*
X120018579Y-109928352D01*
X119889122Y-110004911D01*
X119876696Y-110014551D01*
X119770351Y-110120896D01*
X119760711Y-110133322D01*
X119684152Y-110262779D01*
X119677907Y-110277210D01*
X119638861Y-110411605D01*
X113688900Y-110411605D01*
X113688900Y-107425100D01*
X113708902Y-107356979D01*
X113762558Y-107310486D01*
X113814900Y-107299100D01*
X113853534Y-107299100D01*
X113915716Y-107292345D01*
X114052105Y-107241215D01*
X114130252Y-107182647D01*
X114196758Y-107157799D01*
X114266141Y-107172852D01*
X114281382Y-107182647D01*
X114351752Y-107235386D01*
X114367346Y-107243924D01*
X114487794Y-107289078D01*
X114503049Y-107292705D01*
X114553914Y-107298231D01*
X114560728Y-107298600D01*
X115083285Y-107298600D01*
X115098524Y-107294125D01*
X115099729Y-107292735D01*
X115101400Y-107285052D01*
X115101400Y-107280484D01*
X115609400Y-107280484D01*
X115613875Y-107295723D01*
X115615265Y-107296928D01*
X115622948Y-107298599D01*
X116150069Y-107298599D01*
X116156890Y-107298229D01*
X116207752Y-107292705D01*
X116223004Y-107289079D01*
X116343454Y-107243924D01*
X116359049Y-107235386D01*
X116461124Y-107158885D01*
X116473685Y-107146324D01*
X116550186Y-107044249D01*
X116558724Y-107028654D01*
X116603878Y-106908206D01*
X116607505Y-106892951D01*
X116613031Y-106842086D01*
X116613400Y-106835269D01*
X116613400Y-106062715D01*
X116608925Y-106047476D01*
X116607535Y-106046271D01*
X116599852Y-106044600D01*
X115627515Y-106044600D01*
X115612276Y-106049075D01*
X115611071Y-106050465D01*
X115609400Y-106058148D01*
X115609400Y-107280484D01*
X115101400Y-107280484D01*
X115101400Y-105662600D01*
X115121402Y-105594479D01*
X115175058Y-105547986D01*
X115227400Y-105536600D01*
X116595284Y-105536600D01*
X116610523Y-105532125D01*
X116611728Y-105530735D01*
X116613399Y-105523052D01*
X116613399Y-104745931D01*
X116613029Y-104739110D01*
X116607505Y-104688248D01*
X116603879Y-104672996D01*
X116558724Y-104552546D01*
X116550186Y-104536951D01*
X116473685Y-104434876D01*
X116461124Y-104422315D01*
X116359049Y-104345814D01*
X116343454Y-104337276D01*
X116309858Y-104324681D01*
X116253093Y-104282039D01*
X116228394Y-104215477D01*
X116243602Y-104146128D01*
X116293888Y-104096010D01*
X116354087Y-104080699D01*
X116823884Y-104080699D01*
X116827969Y-104080161D01*
X116827973Y-104080161D01*
X116934663Y-104066116D01*
X116934665Y-104066116D01*
X116942850Y-104065038D01*
X117032734Y-104027807D01*
X117083248Y-104006884D01*
X117083250Y-104006883D01*
X117090876Y-104003724D01*
X117104474Y-103993290D01*
X117211436Y-103911214D01*
X117211437Y-103911213D01*
X117217987Y-103906187D01*
X117223014Y-103899636D01*
X117223016Y-103899634D01*
X117278083Y-103827869D01*
X117315524Y-103779075D01*
X117327329Y-103750575D01*
X118026601Y-103750575D01*
X118055552Y-103851541D01*
X118060067Y-103862945D01*
X118144794Y-104027807D01*
X118151435Y-104038112D01*
X118266568Y-104183372D01*
X118275091Y-104192198D01*
X118416245Y-104312330D01*
X118426317Y-104319330D01*
X118588116Y-104409756D01*
X118599356Y-104414667D01*
X118727768Y-104456390D01*
X118741867Y-104456793D01*
X118745000Y-104450421D01*
X118745000Y-104442164D01*
X119253000Y-104442164D01*
X119256973Y-104455695D01*
X119265188Y-104456876D01*
X119359337Y-104430589D01*
X119370787Y-104426148D01*
X119536226Y-104342579D01*
X119546585Y-104336004D01*
X119692639Y-104221895D01*
X119701527Y-104213431D01*
X119822643Y-104073117D01*
X119829711Y-104063097D01*
X119921262Y-103901937D01*
X119926256Y-103890721D01*
X119971142Y-103755790D01*
X119971643Y-103741697D01*
X119965454Y-103738600D01*
X119271115Y-103738600D01*
X119255876Y-103743075D01*
X119254671Y-103744465D01*
X119253000Y-103752148D01*
X119253000Y-104442164D01*
X118745000Y-104442164D01*
X118745000Y-103756715D01*
X118740525Y-103741476D01*
X118739135Y-103740271D01*
X118731452Y-103738600D01*
X118041282Y-103738600D01*
X118027751Y-103742573D01*
X118026601Y-103750575D01*
X117327329Y-103750575D01*
X117376838Y-103631050D01*
X117385502Y-103565242D01*
X117391962Y-103516172D01*
X117391962Y-103516171D01*
X117392500Y-103512085D01*
X117392499Y-103232316D01*
X117390751Y-103219033D01*
X117377916Y-103121537D01*
X117377916Y-103121535D01*
X117376838Y-103113350D01*
X117369140Y-103094765D01*
X117361550Y-103024177D01*
X117369140Y-102998326D01*
X117373190Y-102988550D01*
X117377428Y-102972732D01*
X117391462Y-102866134D01*
X117392000Y-102857924D01*
X117392000Y-102831700D01*
X117412002Y-102763579D01*
X117465658Y-102717086D01*
X117518000Y-102705700D01*
X118041920Y-102705700D01*
X118110041Y-102725702D01*
X118146392Y-102762008D01*
X118147187Y-102763556D01*
X118153164Y-102771097D01*
X118153841Y-102772771D01*
X118154357Y-102773571D01*
X118154205Y-102773669D01*
X118179802Y-102836904D01*
X118166633Y-102906669D01*
X118163254Y-102912354D01*
X118163262Y-102912358D01*
X118070998Y-103080185D01*
X118066166Y-103091458D01*
X118027506Y-103213331D01*
X118027202Y-103227431D01*
X118033763Y-103230600D01*
X119957183Y-103230600D01*
X119970714Y-103226627D01*
X119971806Y-103219033D01*
X119937231Y-103104519D01*
X119932560Y-103093186D01*
X119845537Y-102929518D01*
X119838435Y-102918828D01*
X119817398Y-102851020D01*
X119833827Y-102786864D01*
X119842786Y-102771095D01*
X119873467Y-102717086D01*
X119921723Y-102632142D01*
X119921725Y-102632137D01*
X119924769Y-102626779D01*
X119987197Y-102439113D01*
X120011985Y-102242895D01*
X120012380Y-102214600D01*
X119993080Y-102017767D01*
X119990668Y-102009776D01*
X119960850Y-101911016D01*
X119935916Y-101828431D01*
X119843066Y-101653804D01*
X119839167Y-101649024D01*
X119838715Y-101648343D01*
X119817676Y-101580535D01*
X119834105Y-101516375D01*
X119835118Y-101514593D01*
X119867960Y-101456780D01*
X119921723Y-101362142D01*
X119921725Y-101362137D01*
X119924769Y-101356779D01*
X119987197Y-101169113D01*
X120011985Y-100972895D01*
X120012380Y-100944600D01*
X119993080Y-100747767D01*
X119935916Y-100558431D01*
X119933024Y-100552991D01*
X119931195Y-100548554D01*
X119923731Y-100477950D01*
X119941512Y-100437231D01*
X119939921Y-100436360D01*
X119944229Y-100428491D01*
X119949615Y-100421305D01*
X120000745Y-100284916D01*
X120007500Y-100222734D01*
X120007500Y-99126466D01*
X120000745Y-99064284D01*
X119997973Y-99056888D01*
X119997971Y-99056882D01*
X119966798Y-98973729D01*
X119961615Y-98902922D01*
X119995536Y-98840553D01*
X120057792Y-98806424D01*
X120084780Y-98803500D01*
X120570500Y-98803500D01*
X120638621Y-98823502D01*
G37*
%TD.AperFunction*%
%TA.AperFunction,Conductor*%
G36*
X105357422Y-103777502D02*
G01*
X105396426Y-103817165D01*
X105397341Y-103818642D01*
X105397712Y-103819241D01*
X105397901Y-103819547D01*
X105416758Y-103887994D01*
X105398036Y-103951998D01*
X105351307Y-104027807D01*
X105315498Y-104085899D01*
X105261651Y-104248243D01*
X105251300Y-104349268D01*
X105251300Y-104946732D01*
X105251637Y-104949978D01*
X105251637Y-104949982D01*
X105253503Y-104967967D01*
X105261913Y-105049019D01*
X105264095Y-105055559D01*
X105301258Y-105166948D01*
X105316044Y-105211268D01*
X105319896Y-105217492D01*
X105319896Y-105217493D01*
X105376111Y-105308335D01*
X105406048Y-105356713D01*
X105527098Y-105477552D01*
X105529333Y-105478930D01*
X105569282Y-105535273D01*
X105576065Y-105572282D01*
X105576238Y-105577788D01*
X105576300Y-105581745D01*
X105576300Y-105609656D01*
X105576797Y-105613590D01*
X105576797Y-105613591D01*
X105576805Y-105613656D01*
X105577738Y-105625493D01*
X105579127Y-105669689D01*
X105584021Y-105686533D01*
X105584778Y-105689139D01*
X105588787Y-105708500D01*
X105591326Y-105728597D01*
X105594245Y-105735968D01*
X105594245Y-105735970D01*
X105607604Y-105769712D01*
X105611449Y-105780942D01*
X105623782Y-105823393D01*
X105627815Y-105830212D01*
X105627817Y-105830217D01*
X105634093Y-105840828D01*
X105642788Y-105858576D01*
X105650248Y-105877417D01*
X105654910Y-105883833D01*
X105654910Y-105883834D01*
X105676236Y-105913187D01*
X105682752Y-105923107D01*
X105699544Y-105951500D01*
X105705258Y-105961162D01*
X105719579Y-105975483D01*
X105732419Y-105990516D01*
X105744328Y-106006907D01*
X105776213Y-106033284D01*
X105778393Y-106035088D01*
X105787174Y-106043078D01*
X106156354Y-106412259D01*
X106163887Y-106420537D01*
X106168000Y-106427018D01*
X106173779Y-106432445D01*
X106173781Y-106432447D01*
X106217635Y-106473627D01*
X106220481Y-106476385D01*
X106229568Y-106485472D01*
X106240230Y-106496135D01*
X106243427Y-106498615D01*
X106252447Y-106506318D01*
X106284679Y-106536586D01*
X106291625Y-106540405D01*
X106291628Y-106540407D01*
X106302434Y-106546348D01*
X106318953Y-106557199D01*
X106334959Y-106569614D01*
X106342228Y-106572759D01*
X106342232Y-106572762D01*
X106375537Y-106587174D01*
X106386187Y-106592391D01*
X106424940Y-106613695D01*
X106432615Y-106615666D01*
X106432616Y-106615666D01*
X106444562Y-106618733D01*
X106463267Y-106625137D01*
X106481855Y-106633181D01*
X106489678Y-106634420D01*
X106489688Y-106634423D01*
X106525524Y-106640099D01*
X106537144Y-106642505D01*
X106572289Y-106651528D01*
X106579970Y-106653500D01*
X106600224Y-106653500D01*
X106619934Y-106655051D01*
X106639943Y-106658220D01*
X106647835Y-106657474D01*
X106659263Y-106656394D01*
X106683962Y-106654059D01*
X106695819Y-106653500D01*
X108828207Y-106653500D01*
X108851816Y-106655732D01*
X108852119Y-106655790D01*
X108852123Y-106655790D01*
X108859906Y-106657275D01*
X108915951Y-106653749D01*
X108923862Y-106653500D01*
X108939856Y-106653500D01*
X108955730Y-106651494D01*
X108963590Y-106650752D01*
X108991049Y-106649024D01*
X109011737Y-106647723D01*
X109011738Y-106647723D01*
X109019650Y-106647225D01*
X109027191Y-106644775D01*
X109027487Y-106644679D01*
X109050631Y-106639506D01*
X109050935Y-106639468D01*
X109050940Y-106639467D01*
X109058797Y-106638474D01*
X109066162Y-106635558D01*
X109066166Y-106635557D01*
X109111011Y-106617801D01*
X109118430Y-106615129D01*
X109171875Y-106597764D01*
X109178572Y-106593514D01*
X109178831Y-106593350D01*
X109199958Y-106582585D01*
X109200246Y-106582471D01*
X109200251Y-106582468D01*
X109207617Y-106579552D01*
X109214025Y-106574896D01*
X109214031Y-106574893D01*
X109253052Y-106546542D01*
X109259599Y-106542093D01*
X109303386Y-106514305D01*
X109371620Y-106494692D01*
X109439625Y-106515083D01*
X109485811Y-106569003D01*
X109496900Y-106620690D01*
X109496900Y-106838734D01*
X109503655Y-106900916D01*
X109554785Y-107037305D01*
X109642139Y-107153861D01*
X109758695Y-107241215D01*
X109895084Y-107292345D01*
X109957266Y-107299100D01*
X109995900Y-107299100D01*
X110064021Y-107319102D01*
X110110514Y-107372758D01*
X110121900Y-107425100D01*
X110121900Y-109070500D01*
X110101898Y-109138621D01*
X110048242Y-109185114D01*
X109995900Y-109196500D01*
X107802379Y-109196500D01*
X107734258Y-109176498D01*
X107687765Y-109122842D01*
X107677052Y-109083505D01*
X107675038Y-109064092D01*
X107675037Y-109064088D01*
X107674326Y-109057234D01*
X107618350Y-108889454D01*
X107525278Y-108739052D01*
X107400103Y-108614095D01*
X107352938Y-108585022D01*
X107255768Y-108525125D01*
X107255766Y-108525124D01*
X107249538Y-108521285D01*
X107089054Y-108468055D01*
X107088189Y-108467768D01*
X107088187Y-108467768D01*
X107081661Y-108465603D01*
X107074825Y-108464903D01*
X107074822Y-108464902D01*
X107031769Y-108460491D01*
X106977200Y-108454900D01*
X105976400Y-108454900D01*
X105973154Y-108455237D01*
X105973150Y-108455237D01*
X105877492Y-108465162D01*
X105877488Y-108465163D01*
X105870634Y-108465874D01*
X105864098Y-108468055D01*
X105864096Y-108468055D01*
X105751906Y-108505485D01*
X105702854Y-108521850D01*
X105552452Y-108614922D01*
X105427495Y-108740097D01*
X105423653Y-108746329D01*
X105423652Y-108746331D01*
X105401346Y-108782517D01*
X105348574Y-108830010D01*
X105294087Y-108842400D01*
X102477834Y-108842400D01*
X102409713Y-108822398D01*
X102370690Y-108782703D01*
X102347532Y-108745280D01*
X102343678Y-108739052D01*
X102218503Y-108614095D01*
X102171338Y-108585022D01*
X102074168Y-108525125D01*
X102074166Y-108525124D01*
X102067938Y-108521285D01*
X101907454Y-108468055D01*
X101906589Y-108467768D01*
X101906587Y-108467768D01*
X101900061Y-108465603D01*
X101893225Y-108464903D01*
X101893222Y-108464902D01*
X101850169Y-108460491D01*
X101795600Y-108454900D01*
X100794800Y-108454900D01*
X100791554Y-108455237D01*
X100791550Y-108455237D01*
X100695892Y-108465162D01*
X100695888Y-108465163D01*
X100689034Y-108465874D01*
X100682498Y-108468055D01*
X100682496Y-108468055D01*
X100570306Y-108505485D01*
X100521254Y-108521850D01*
X100370852Y-108614922D01*
X100245895Y-108740097D01*
X100242053Y-108746329D01*
X100242052Y-108746331D01*
X100219746Y-108782517D01*
X100166974Y-108830010D01*
X100112487Y-108842400D01*
X100062645Y-108842400D01*
X99994524Y-108822398D01*
X99973627Y-108805573D01*
X99900233Y-108732307D01*
X99895053Y-108727136D01*
X99886337Y-108721763D01*
X99799536Y-108668259D01*
X99750692Y-108638151D01*
X99696283Y-108620104D01*
X99596262Y-108586928D01*
X99596260Y-108586928D01*
X99589731Y-108584762D01*
X99575344Y-108583288D01*
X99509617Y-108556446D01*
X99468836Y-108498331D01*
X99465948Y-108427393D01*
X99501870Y-108366155D01*
X99565198Y-108334059D01*
X99575186Y-108332617D01*
X99584124Y-108331690D01*
X99584128Y-108331689D01*
X99590982Y-108330978D01*
X99751849Y-108277308D01*
X99896055Y-108188071D01*
X99914118Y-108169977D01*
X100010693Y-108073233D01*
X100015864Y-108068053D01*
X100104849Y-107923692D01*
X100108713Y-107912042D01*
X100156072Y-107769262D01*
X100156072Y-107769260D01*
X100158238Y-107762731D01*
X100168500Y-107662572D01*
X100168500Y-107128428D01*
X100157978Y-107027018D01*
X100104308Y-106866151D01*
X100015071Y-106721945D01*
X99895053Y-106602136D01*
X99888822Y-106598295D01*
X99753384Y-106514810D01*
X99705891Y-106462038D01*
X99693500Y-106407550D01*
X99693500Y-106250767D01*
X99694027Y-106239584D01*
X99695702Y-106232091D01*
X99693562Y-106164000D01*
X99693500Y-106160043D01*
X99693500Y-106132144D01*
X99692996Y-106128153D01*
X99692063Y-106116311D01*
X99691739Y-106105981D01*
X99690674Y-106072111D01*
X99688462Y-106064497D01*
X99688461Y-106064492D01*
X99685023Y-106052659D01*
X99681012Y-106033295D01*
X99679847Y-106024068D01*
X99678474Y-106013203D01*
X99675557Y-106005836D01*
X99675556Y-106005831D01*
X99662198Y-105972092D01*
X99658354Y-105960865D01*
X99648230Y-105926022D01*
X99646018Y-105918407D01*
X99635707Y-105900972D01*
X99627012Y-105883224D01*
X99619552Y-105864383D01*
X99593564Y-105828613D01*
X99587048Y-105818693D01*
X99568580Y-105787465D01*
X99568578Y-105787462D01*
X99564542Y-105780638D01*
X99550221Y-105766317D01*
X99537380Y-105751283D01*
X99530131Y-105741306D01*
X99525472Y-105734893D01*
X99491395Y-105706702D01*
X99482616Y-105698712D01*
X99363999Y-105580095D01*
X99329973Y-105517783D01*
X99335038Y-105446968D01*
X99377585Y-105390132D01*
X99444105Y-105365321D01*
X99453094Y-105365000D01*
X99609438Y-105365000D01*
X99615953Y-105364663D01*
X99708057Y-105355106D01*
X99721456Y-105352212D01*
X99870107Y-105302619D01*
X99883286Y-105296445D01*
X100016173Y-105214212D01*
X100027574Y-105205176D01*
X100137986Y-105094571D01*
X100146998Y-105083160D01*
X100229004Y-104950121D01*
X100230658Y-104946574D01*
X100232433Y-104944558D01*
X100232846Y-104943888D01*
X100232961Y-104943959D01*
X100277575Y-104893289D01*
X100345852Y-104873828D01*
X100413812Y-104894370D01*
X100451997Y-104933521D01*
X100513788Y-105033373D01*
X100522824Y-105044774D01*
X100633429Y-105155186D01*
X100644840Y-105164198D01*
X100777880Y-105246204D01*
X100791061Y-105252351D01*
X100939814Y-105301691D01*
X100953190Y-105304558D01*
X101044097Y-105313872D01*
X101050513Y-105314200D01*
X101073885Y-105314200D01*
X101089124Y-105309725D01*
X101090329Y-105308335D01*
X101092000Y-105300652D01*
X101092000Y-105296085D01*
X101600000Y-105296085D01*
X101604475Y-105311324D01*
X101605865Y-105312529D01*
X101613548Y-105314200D01*
X101641438Y-105314200D01*
X101647953Y-105313863D01*
X101740057Y-105304306D01*
X101753456Y-105301412D01*
X101902107Y-105251819D01*
X101915286Y-105245645D01*
X102048173Y-105163412D01*
X102059574Y-105154376D01*
X102169986Y-105043771D01*
X102178998Y-105032360D01*
X102261004Y-104899320D01*
X102267151Y-104886139D01*
X102316491Y-104737386D01*
X102319358Y-104724010D01*
X102328672Y-104633103D01*
X102328929Y-104628074D01*
X102324525Y-104613076D01*
X102323135Y-104611871D01*
X102315452Y-104610200D01*
X101618115Y-104610200D01*
X101602876Y-104614675D01*
X101601671Y-104616065D01*
X101600000Y-104623748D01*
X101600000Y-105296085D01*
X101092000Y-105296085D01*
X101092000Y-104628315D01*
X101087525Y-104613076D01*
X101086135Y-104611871D01*
X101078452Y-104610200D01*
X100381115Y-104610200D01*
X100365875Y-104614675D01*
X100363416Y-104617513D01*
X100303689Y-104655896D01*
X100268192Y-104661000D01*
X99186000Y-104661000D01*
X99117879Y-104640998D01*
X99071386Y-104587342D01*
X99060000Y-104535000D01*
X99060000Y-104279000D01*
X99080002Y-104210879D01*
X99133658Y-104164386D01*
X99186000Y-104153000D01*
X100278885Y-104153000D01*
X100294125Y-104148525D01*
X100296584Y-104145687D01*
X100356311Y-104107304D01*
X100391808Y-104102200D01*
X102310885Y-104102200D01*
X102326124Y-104097725D01*
X102327329Y-104096335D01*
X102329000Y-104088652D01*
X102329000Y-104085762D01*
X102328663Y-104079247D01*
X102319106Y-103987143D01*
X102316212Y-103973744D01*
X102299408Y-103923376D01*
X102296824Y-103852427D01*
X102333007Y-103791343D01*
X102396472Y-103759518D01*
X102418932Y-103757500D01*
X105289301Y-103757500D01*
X105357422Y-103777502D01*
G37*
%TD.AperFunction*%
%TA.AperFunction,Conductor*%
G36*
X98117012Y-106125371D02*
G01*
X98123590Y-106131494D01*
X98234037Y-106241942D01*
X98340662Y-106348567D01*
X98374687Y-106410879D01*
X98369622Y-106481695D01*
X98327075Y-106538530D01*
X98317869Y-106544806D01*
X98230171Y-106599075D01*
X98230164Y-106599081D01*
X98223945Y-106602929D01*
X98104136Y-106722947D01*
X98100296Y-106729177D01*
X98100295Y-106729178D01*
X98096706Y-106735000D01*
X98015151Y-106867308D01*
X98012872Y-106865903D01*
X97974173Y-106909847D01*
X97905894Y-106929302D01*
X97837936Y-106908754D01*
X97806079Y-106878871D01*
X97791884Y-106859930D01*
X97763261Y-106821739D01*
X97762026Y-106820813D01*
X97729792Y-106761783D01*
X97734857Y-106690968D01*
X97761414Y-106649645D01*
X97763261Y-106648261D01*
X97850615Y-106531705D01*
X97850904Y-106531921D01*
X97897065Y-106485861D01*
X97902418Y-106483647D01*
X97906328Y-106479135D01*
X97907999Y-106471452D01*
X97907999Y-106440330D01*
X97907630Y-106433509D01*
X97904091Y-106400929D01*
X97904091Y-106373720D01*
X97908500Y-106333134D01*
X97908500Y-106220595D01*
X97928502Y-106152474D01*
X97982158Y-106105981D01*
X98052432Y-106095877D01*
X98117012Y-106125371D01*
G37*
%TD.AperFunction*%
%TA.AperFunction,Conductor*%
G36*
X112255027Y-97783002D02*
G01*
X112301520Y-97836658D01*
X112311624Y-97906932D01*
X112282130Y-97971512D01*
X112276017Y-97978078D01*
X111497736Y-98756359D01*
X111489462Y-98763888D01*
X111482982Y-98768000D01*
X111477557Y-98773777D01*
X111477556Y-98773778D01*
X111460665Y-98791765D01*
X111399452Y-98827731D01*
X111328512Y-98824892D01*
X111320597Y-98821921D01*
X111225480Y-98782522D01*
X111225477Y-98782521D01*
X111217850Y-98779362D01*
X111209662Y-98778284D01*
X111102972Y-98764238D01*
X111102971Y-98764238D01*
X111098885Y-98763700D01*
X110421583Y-98763700D01*
X109744116Y-98763701D01*
X109740031Y-98764239D01*
X109740027Y-98764239D01*
X109633337Y-98778284D01*
X109633335Y-98778284D01*
X109625150Y-98779362D01*
X109559925Y-98806379D01*
X109484752Y-98837516D01*
X109484750Y-98837517D01*
X109477124Y-98840676D01*
X109470574Y-98845702D01*
X109361368Y-98929500D01*
X109350013Y-98938213D01*
X109344990Y-98944759D01*
X109302275Y-99000425D01*
X109296643Y-99006647D01*
X109296532Y-99006728D01*
X109296127Y-99007218D01*
X109296123Y-99007222D01*
X109268341Y-99040805D01*
X109260361Y-99049574D01*
X108289019Y-100020915D01*
X108226709Y-100054939D01*
X108207998Y-100057325D01*
X108208012Y-100057501D01*
X108171534Y-100060371D01*
X108074730Y-100088495D01*
X108023017Y-100103519D01*
X108023015Y-100103520D01*
X108015404Y-100105731D01*
X107875459Y-100188494D01*
X107760494Y-100303459D01*
X107677731Y-100443404D01*
X107675520Y-100451015D01*
X107675519Y-100451017D01*
X107657410Y-100513350D01*
X107632371Y-100599534D01*
X107631867Y-100605941D01*
X107631866Y-100605945D01*
X107629791Y-100632315D01*
X107629500Y-100636011D01*
X107629501Y-101035988D01*
X107632371Y-101072466D01*
X107677731Y-101228596D01*
X107709523Y-101282353D01*
X107726982Y-101351166D01*
X107709522Y-101410630D01*
X107682229Y-101456780D01*
X107675981Y-101471217D01*
X107643039Y-101584605D01*
X107643079Y-101598705D01*
X107650349Y-101602000D01*
X108120458Y-101602000D01*
X108155610Y-101607003D01*
X108165353Y-101609834D01*
X108165360Y-101609835D01*
X108171534Y-101611629D01*
X108177941Y-101612133D01*
X108177945Y-101612134D01*
X108205556Y-101614307D01*
X108205562Y-101614307D01*
X108208011Y-101614500D01*
X108217930Y-101614500D01*
X108586001Y-101614499D01*
X108654120Y-101634501D01*
X108700613Y-101688156D01*
X108712000Y-101740499D01*
X108712000Y-101984000D01*
X108691998Y-102052121D01*
X108638342Y-102098614D01*
X108586000Y-102110000D01*
X108031915Y-102110000D01*
X108016676Y-102114475D01*
X108015471Y-102115865D01*
X108013800Y-102123548D01*
X108013800Y-102851885D01*
X108018275Y-102867124D01*
X108019665Y-102868329D01*
X108027348Y-102870000D01*
X108699685Y-102870000D01*
X108714924Y-102865525D01*
X108716129Y-102864135D01*
X108717800Y-102856452D01*
X108717800Y-102828562D01*
X108717463Y-102822047D01*
X108709879Y-102748961D01*
X108722743Y-102679139D01*
X108771314Y-102627357D01*
X108800053Y-102614959D01*
X108892783Y-102588019D01*
X108907215Y-102581773D01*
X108985361Y-102535558D01*
X109054177Y-102518099D01*
X109121509Y-102540616D01*
X109165978Y-102595960D01*
X109175500Y-102644011D01*
X109175501Y-102763451D01*
X109175501Y-102862084D01*
X109176039Y-102866169D01*
X109176039Y-102866173D01*
X109182971Y-102918828D01*
X109191162Y-102981050D01*
X109198318Y-102998326D01*
X109198589Y-102998980D01*
X109206179Y-103069570D01*
X109198589Y-103095420D01*
X109194322Y-103105720D01*
X109194321Y-103105723D01*
X109191162Y-103113350D01*
X109175500Y-103232315D01*
X109175501Y-103512084D01*
X109176039Y-103516169D01*
X109176039Y-103516173D01*
X109182356Y-103564158D01*
X109191162Y-103631050D01*
X109216458Y-103692120D01*
X109249316Y-103771446D01*
X109252476Y-103779076D01*
X109257502Y-103785626D01*
X109279771Y-103814647D01*
X109305372Y-103880867D01*
X109291108Y-103950416D01*
X109253870Y-103993287D01*
X109243782Y-104000617D01*
X109238731Y-104006722D01*
X109238726Y-104006727D01*
X109215590Y-104034693D01*
X109207602Y-104043471D01*
X108922207Y-104328866D01*
X108859895Y-104362892D01*
X108789080Y-104357827D01*
X108732244Y-104315280D01*
X108710757Y-104260375D01*
X108709360Y-104260677D01*
X108705012Y-104240544D01*
X108655419Y-104091893D01*
X108649245Y-104078715D01*
X108571093Y-103952422D01*
X108552255Y-103883970D01*
X108570977Y-103820003D01*
X108649804Y-103692120D01*
X108655951Y-103678939D01*
X108705291Y-103530186D01*
X108708158Y-103516810D01*
X108717472Y-103425903D01*
X108717800Y-103419487D01*
X108717800Y-103396115D01*
X108713325Y-103380876D01*
X108711935Y-103379671D01*
X108704252Y-103378000D01*
X108031915Y-103378000D01*
X108016676Y-103382475D01*
X108015471Y-103383865D01*
X108013800Y-103391548D01*
X108013800Y-104776000D01*
X107993798Y-104844121D01*
X107940142Y-104890614D01*
X107887800Y-104902000D01*
X107631800Y-104902000D01*
X107563679Y-104881998D01*
X107517186Y-104828342D01*
X107505800Y-104776000D01*
X107505800Y-102159115D01*
X107501325Y-102143876D01*
X107499935Y-102142671D01*
X107492252Y-102141000D01*
X107489362Y-102141000D01*
X107482847Y-102141337D01*
X107390743Y-102150894D01*
X107377344Y-102153788D01*
X107228693Y-102203381D01*
X107215514Y-102209555D01*
X107082627Y-102291788D01*
X107065489Y-102305371D01*
X107063959Y-102303441D01*
X107011920Y-102331903D01*
X106941101Y-102326887D01*
X106904183Y-102303201D01*
X106903428Y-102304157D01*
X106897682Y-102299619D01*
X106892502Y-102294448D01*
X106861018Y-102275041D01*
X106753131Y-102208538D01*
X106753129Y-102208537D01*
X106746901Y-102204698D01*
X106584557Y-102150851D01*
X106577720Y-102150151D01*
X106577718Y-102150150D01*
X106536399Y-102145917D01*
X106483532Y-102140500D01*
X105936068Y-102140500D01*
X105932822Y-102140837D01*
X105932818Y-102140837D01*
X105903530Y-102143876D01*
X105833781Y-102151113D01*
X105827240Y-102153295D01*
X105827241Y-102153295D01*
X105678476Y-102202927D01*
X105678474Y-102202928D01*
X105671532Y-102205244D01*
X105665308Y-102209096D01*
X105665307Y-102209096D01*
X105605026Y-102246399D01*
X105526087Y-102295248D01*
X105520914Y-102300430D01*
X105515982Y-102305371D01*
X105405248Y-102416298D01*
X105401406Y-102422530D01*
X105401405Y-102422532D01*
X105396421Y-102430617D01*
X105343648Y-102478110D01*
X105289162Y-102490500D01*
X102429801Y-102490500D01*
X102361680Y-102470498D01*
X102315187Y-102416842D01*
X102310278Y-102404376D01*
X102267074Y-102274879D01*
X102267073Y-102274877D01*
X102264756Y-102267932D01*
X102189757Y-102146734D01*
X102178606Y-102128715D01*
X102174752Y-102122487D01*
X102053702Y-102001648D01*
X102015153Y-101977886D01*
X101914331Y-101915738D01*
X101914329Y-101915737D01*
X101908101Y-101911898D01*
X101745757Y-101858051D01*
X101738920Y-101857351D01*
X101738918Y-101857350D01*
X101697599Y-101853117D01*
X101644732Y-101847700D01*
X101047268Y-101847700D01*
X101044022Y-101848037D01*
X101044018Y-101848037D01*
X101009917Y-101851575D01*
X100944981Y-101858313D01*
X100938440Y-101860495D01*
X100938441Y-101860495D01*
X100789676Y-101910127D01*
X100789674Y-101910128D01*
X100782732Y-101912444D01*
X100776508Y-101916296D01*
X100776507Y-101916296D01*
X100704384Y-101960927D01*
X100637287Y-102002448D01*
X100516448Y-102123498D01*
X100512608Y-102129728D01*
X100512607Y-102129729D01*
X100491719Y-102163616D01*
X100438947Y-102211109D01*
X100384459Y-102223500D01*
X100242379Y-102223500D01*
X100174258Y-102203498D01*
X100145116Y-102177106D01*
X100142752Y-102173287D01*
X100089685Y-102120312D01*
X100026882Y-102057619D01*
X100021702Y-102052448D01*
X99997794Y-102037711D01*
X99882331Y-101966538D01*
X99882329Y-101966537D01*
X99876101Y-101962698D01*
X99713757Y-101908851D01*
X99706920Y-101908151D01*
X99706918Y-101908150D01*
X99665599Y-101903917D01*
X99612732Y-101898500D01*
X99015268Y-101898500D01*
X99012022Y-101898837D01*
X99012018Y-101898837D01*
X98977917Y-101902375D01*
X98912981Y-101909113D01*
X98893124Y-101915738D01*
X98757676Y-101960927D01*
X98757674Y-101960928D01*
X98750732Y-101963244D01*
X98744508Y-101967096D01*
X98744507Y-101967096D01*
X98679005Y-102007630D01*
X98605287Y-102053248D01*
X98484448Y-102174298D01*
X98480608Y-102180528D01*
X98480607Y-102180529D01*
X98404402Y-102304157D01*
X98394698Y-102319899D01*
X98340851Y-102482243D01*
X98340151Y-102489080D01*
X98340150Y-102489082D01*
X98337177Y-102518099D01*
X98330500Y-102583268D01*
X98330500Y-103130732D01*
X98341113Y-103233019D01*
X98343295Y-103239559D01*
X98391440Y-103383865D01*
X98395244Y-103395268D01*
X98485248Y-103540713D01*
X98490430Y-103545886D01*
X98494977Y-103551623D01*
X98493170Y-103553055D01*
X98521902Y-103605575D01*
X98516892Y-103676395D01*
X98493503Y-103712851D01*
X98494554Y-103713681D01*
X98478676Y-103733787D01*
X98420760Y-103774851D01*
X98349837Y-103778084D01*
X98290697Y-103744792D01*
X98263652Y-103717747D01*
X98256112Y-103709461D01*
X98252000Y-103702982D01*
X98202347Y-103656355D01*
X98199506Y-103653601D01*
X98179770Y-103633865D01*
X98176573Y-103631385D01*
X98167551Y-103623680D01*
X98141100Y-103598841D01*
X98135321Y-103593414D01*
X98128375Y-103589595D01*
X98128372Y-103589593D01*
X98117566Y-103583652D01*
X98101047Y-103572801D01*
X98100583Y-103572441D01*
X98085041Y-103560386D01*
X98077772Y-103557241D01*
X98077768Y-103557238D01*
X98044463Y-103542826D01*
X98033813Y-103537609D01*
X97995060Y-103516305D01*
X97987920Y-103514472D01*
X97932144Y-103470952D01*
X97908500Y-103397473D01*
X97908500Y-102161866D01*
X97901745Y-102099684D01*
X97850615Y-101963295D01*
X97763261Y-101846739D01*
X97646705Y-101759385D01*
X97510316Y-101708255D01*
X97448134Y-101701500D01*
X96352095Y-101701500D01*
X96283974Y-101681498D01*
X96263000Y-101664595D01*
X96241152Y-101642747D01*
X96233612Y-101634461D01*
X96229500Y-101627982D01*
X96214938Y-101614307D01*
X96179849Y-101581357D01*
X96177007Y-101578602D01*
X96157270Y-101558865D01*
X96154073Y-101556385D01*
X96145051Y-101548680D01*
X96118600Y-101523841D01*
X96112821Y-101518414D01*
X96105875Y-101514595D01*
X96105872Y-101514593D01*
X96095066Y-101508652D01*
X96078547Y-101497801D01*
X96078083Y-101497441D01*
X96062541Y-101485386D01*
X96055272Y-101482241D01*
X96055268Y-101482238D01*
X96021963Y-101467826D01*
X96011313Y-101462609D01*
X95972560Y-101441305D01*
X95952937Y-101436267D01*
X95934234Y-101429863D01*
X95922920Y-101424967D01*
X95922919Y-101424967D01*
X95915645Y-101421819D01*
X95907822Y-101420580D01*
X95907812Y-101420577D01*
X95871976Y-101414901D01*
X95860356Y-101412495D01*
X95825211Y-101403472D01*
X95825210Y-101403472D01*
X95817530Y-101401500D01*
X95797276Y-101401500D01*
X95777565Y-101399949D01*
X95765386Y-101398020D01*
X95757557Y-101396780D01*
X95749665Y-101397526D01*
X95713539Y-101400941D01*
X95701681Y-101401500D01*
X95334500Y-101401500D01*
X95266379Y-101381498D01*
X95219886Y-101327842D01*
X95208500Y-101275500D01*
X95208500Y-101161866D01*
X95201745Y-101099684D01*
X95150615Y-100963295D01*
X95063261Y-100846739D01*
X94946705Y-100759385D01*
X94810316Y-100708255D01*
X94748134Y-100701500D01*
X93444000Y-100701500D01*
X93375879Y-100681498D01*
X93329386Y-100627842D01*
X93318000Y-100575500D01*
X93318000Y-97889000D01*
X93338002Y-97820879D01*
X93391658Y-97774386D01*
X93444000Y-97763000D01*
X112186906Y-97763000D01*
X112255027Y-97783002D01*
G37*
%TD.AperFunction*%
%TA.AperFunction,Conductor*%
G36*
X114880664Y-103650245D02*
G01*
X114937500Y-103692792D01*
X114953041Y-103720084D01*
X114974315Y-103771446D01*
X114974316Y-103771448D01*
X114977476Y-103779076D01*
X114982502Y-103785626D01*
X115069985Y-103899634D01*
X115075013Y-103906187D01*
X115081563Y-103911213D01*
X115081566Y-103911216D01*
X115119467Y-103940298D01*
X115202125Y-104003724D01*
X115270514Y-104032052D01*
X115290166Y-104040192D01*
X115345446Y-104084741D01*
X115367867Y-104152105D01*
X115350308Y-104220896D01*
X115298346Y-104269274D01*
X115241947Y-104282601D01*
X114560731Y-104282601D01*
X114553910Y-104282971D01*
X114503048Y-104288495D01*
X114487793Y-104292122D01*
X114467364Y-104299780D01*
X114396556Y-104304963D01*
X114334188Y-104271041D01*
X114300059Y-104208786D01*
X114305006Y-104137962D01*
X114334040Y-104092703D01*
X114747537Y-103679206D01*
X114809849Y-103645180D01*
X114880664Y-103650245D01*
G37*
%TD.AperFunction*%
%TD*%
M02*
