%TF.GenerationSoftware,KiCad,Pcbnew,(6.0.1)*%
%TF.CreationDate,2022-02-12T15:33:55+03:30*%
%TF.ProjectId,led,6c65642e-6b69-4636-9164-5f7063625858,rev?*%
%TF.SameCoordinates,Original*%
%TF.FileFunction,Copper,L2,Bot*%
%TF.FilePolarity,Positive*%
%FSLAX46Y46*%
G04 Gerber Fmt 4.6, Leading zero omitted, Abs format (unit mm)*
G04 Created by KiCad (PCBNEW (6.0.1)) date 2022-02-12 15:33:55*
%MOMM*%
%LPD*%
G01*
G04 APERTURE LIST*
%TA.AperFunction,NonConductor*%
%ADD10C,0.200000*%
%TD*%
%TA.AperFunction,ComponentPad*%
%ADD11R,1.000000X1.000000*%
%TD*%
%TA.AperFunction,ComponentPad*%
%ADD12O,1.000000X1.000000*%
%TD*%
%TA.AperFunction,ViaPad*%
%ADD13C,0.800000*%
%TD*%
%TA.AperFunction,Conductor*%
%ADD14C,0.250000*%
%TD*%
G04 APERTURE END LIST*
D10*
X92710000Y-97155000D02*
X125095000Y-97155000D01*
X92710000Y-114935000D02*
X92710000Y-97155000D01*
X125095000Y-114935000D02*
X92710000Y-114935000D01*
X125095000Y-97155000D02*
X125095000Y-114935000D01*
D11*
%TO.P,J2,1,Pin_1*%
%TO.N,SWCLK*%
X118999000Y-99674600D03*
D12*
%TO.P,J2,2,Pin_2*%
%TO.N,SWDIO*%
X118999000Y-100944600D03*
%TO.P,J2,3,Pin_3*%
%TO.N,+3V3*%
X118999000Y-102214600D03*
%TO.P,J2,4,Pin_4*%
%TO.N,GND*%
X118999000Y-103484600D03*
%TD*%
D13*
%TO.N,GND*%
X109220000Y-103886000D03*
X114357719Y-104197719D03*
X100325701Y-106430299D03*
X107696000Y-105295500D03*
X107696000Y-106934000D03*
X98293701Y-106430299D03*
%TD*%
D14*
%TO.N,GND*%
X109220000Y-103632000D02*
X109220000Y-103886000D01*
X113341719Y-104197719D02*
X112776000Y-103632000D01*
X114357719Y-104197719D02*
X113341719Y-104197719D01*
X112776000Y-103632000D02*
X109220000Y-103632000D01*
X100330000Y-106426000D02*
X100325701Y-106430299D01*
X98293701Y-106430299D02*
X100325701Y-106430299D01*
X107696000Y-106934000D02*
X107696000Y-105295500D01*
%TD*%
%TA.AperFunction,Conductor*%
%TO.N,GND*%
G36*
X124429121Y-97783002D02*
G01*
X124475614Y-97836658D01*
X124487000Y-97889000D01*
X124487000Y-114201000D01*
X124466998Y-114269121D01*
X124413342Y-114315614D01*
X124361000Y-114327000D01*
X93444000Y-114327000D01*
X93375879Y-114306998D01*
X93329386Y-114253342D01*
X93318000Y-114201000D01*
X93318000Y-103750575D01*
X118026601Y-103750575D01*
X118055552Y-103851541D01*
X118060067Y-103862945D01*
X118144794Y-104027807D01*
X118151435Y-104038112D01*
X118266568Y-104183372D01*
X118275091Y-104192198D01*
X118416245Y-104312330D01*
X118426317Y-104319330D01*
X118588116Y-104409756D01*
X118599356Y-104414667D01*
X118727768Y-104456390D01*
X118741867Y-104456793D01*
X118745000Y-104450421D01*
X118745000Y-104442164D01*
X119253000Y-104442164D01*
X119256973Y-104455695D01*
X119265188Y-104456876D01*
X119359337Y-104430589D01*
X119370787Y-104426148D01*
X119536226Y-104342579D01*
X119546585Y-104336004D01*
X119692639Y-104221895D01*
X119701527Y-104213431D01*
X119822643Y-104073117D01*
X119829711Y-104063097D01*
X119921262Y-103901937D01*
X119926256Y-103890721D01*
X119971142Y-103755790D01*
X119971643Y-103741697D01*
X119965454Y-103738600D01*
X119271115Y-103738600D01*
X119255876Y-103743075D01*
X119254671Y-103744465D01*
X119253000Y-103752148D01*
X119253000Y-104442164D01*
X118745000Y-104442164D01*
X118745000Y-103756715D01*
X118740525Y-103741476D01*
X118739135Y-103740271D01*
X118731452Y-103738600D01*
X118041282Y-103738600D01*
X118027751Y-103742573D01*
X118026601Y-103750575D01*
X93318000Y-103750575D01*
X93318000Y-102200451D01*
X117985719Y-102200451D01*
X118002268Y-102397534D01*
X118056783Y-102587650D01*
X118147187Y-102763556D01*
X118153164Y-102771097D01*
X118153843Y-102772774D01*
X118154353Y-102773566D01*
X118154203Y-102773663D01*
X118179802Y-102836904D01*
X118166633Y-102906669D01*
X118163254Y-102912354D01*
X118163262Y-102912358D01*
X118070998Y-103080185D01*
X118066166Y-103091458D01*
X118027506Y-103213331D01*
X118027202Y-103227431D01*
X118033763Y-103230600D01*
X119957183Y-103230600D01*
X119970714Y-103226627D01*
X119971806Y-103219033D01*
X119937231Y-103104519D01*
X119932560Y-103093186D01*
X119845537Y-102929518D01*
X119838435Y-102918828D01*
X119817398Y-102851020D01*
X119833827Y-102786864D01*
X119841327Y-102773663D01*
X119867783Y-102727092D01*
X119921723Y-102632142D01*
X119921725Y-102632137D01*
X119924769Y-102626779D01*
X119987197Y-102439113D01*
X120011985Y-102242895D01*
X120012380Y-102214600D01*
X119993080Y-102017767D01*
X119935916Y-101828431D01*
X119843066Y-101653804D01*
X119839167Y-101649024D01*
X119838715Y-101648343D01*
X119817676Y-101580535D01*
X119834105Y-101516375D01*
X119921723Y-101362142D01*
X119921725Y-101362137D01*
X119924769Y-101356779D01*
X119987197Y-101169113D01*
X120011985Y-100972895D01*
X120012380Y-100944600D01*
X119993080Y-100747767D01*
X119935916Y-100558431D01*
X119933024Y-100552991D01*
X119931195Y-100548554D01*
X119923731Y-100477950D01*
X119941512Y-100437231D01*
X119939921Y-100436360D01*
X119944229Y-100428491D01*
X119949615Y-100421305D01*
X120000745Y-100284916D01*
X120007500Y-100222734D01*
X120007500Y-99126466D01*
X120000745Y-99064284D01*
X119949615Y-98927895D01*
X119862261Y-98811339D01*
X119745705Y-98723985D01*
X119609316Y-98672855D01*
X119547134Y-98666100D01*
X118450866Y-98666100D01*
X118388684Y-98672855D01*
X118252295Y-98723985D01*
X118135739Y-98811339D01*
X118048385Y-98927895D01*
X117997255Y-99064284D01*
X117990500Y-99126466D01*
X117990500Y-100222734D01*
X117997255Y-100284916D01*
X118048385Y-100421305D01*
X118053771Y-100428492D01*
X118058079Y-100436360D01*
X118055858Y-100437576D01*
X118076013Y-100491510D01*
X118066993Y-100545205D01*
X118067567Y-100545387D01*
X118065706Y-100551254D01*
X118065705Y-100551256D01*
X118009627Y-100728036D01*
X118007765Y-100733906D01*
X117985719Y-100930451D01*
X118002268Y-101127534D01*
X118056783Y-101317650D01*
X118147187Y-101493556D01*
X118151016Y-101498387D01*
X118152839Y-101500688D01*
X118153414Y-101502109D01*
X118154353Y-101503566D01*
X118154076Y-101503744D01*
X118179474Y-101566498D01*
X118166301Y-101636262D01*
X118162846Y-101642074D01*
X118067567Y-101815387D01*
X118065706Y-101821254D01*
X118065705Y-101821256D01*
X118009627Y-101998036D01*
X118007765Y-102003906D01*
X117985719Y-102200451D01*
X93318000Y-102200451D01*
X93318000Y-97889000D01*
X93338002Y-97820879D01*
X93391658Y-97774386D01*
X93444000Y-97763000D01*
X124361000Y-97763000D01*
X124429121Y-97783002D01*
G37*
%TD.AperFunction*%
%TD*%
M02*
